<?xml version="1.0" encoding="UTF-8" standalone="no"?> <!-- Created with Vectornator for iOS (http://vectornator.io/) --><!DOCTYPE svg PUBLIC "-//W3C//DTD SVG 1.1//EN" "http://www.w3.org/Graphics/SVG/1.1/DTD/svg11.dtd">
<svg height="100%" style="fill-rule:evenodd;clip-rule:evenodd;stroke-linecap:round;stroke-linejoin:round;" xmlns:xlink="http://www.w3.org/1999/xlink" xmlns="http://www.w3.org/2000/svg" xml:space="preserve" width="100%" xmlns:vectornator="http://vectornator.io" version="1.1" viewBox="0 0 1000 250">
<metadata>
<vectornator:setting key="DimensionsVisible" value="1"/>
<vectornator:setting key="SnapToGrid" value="0"/>
<vectornator:setting key="SnapToPoints" value="0"/>
<vectornator:setting key="GuidesVisible" value="1"/>
<vectornator:setting key="RulersVisible" value="1"/>
<vectornator:setting key="CMYKEnabledKey" value="0"/>
<vectornator:setting key="SnapToEdges" value="0"/>
<vectornator:setting key="DisplayWhiteBackground" value="0"/>
<vectornator:setting key="SnapToGuides" value="1"/>
<vectornator:setting key="GridSpacing" value="36"/>
<vectornator:setting key="Units" value="Pixels"/>
<vectornator:setting key="DynamicGuides" value="0"/>
<vectornator:setting key="New" value="1"/>
</metadata>
<defs/>
<g id="Layer 1" vectornator:layerName="Layer 1">
<path d="M50.7676+102.537C49.3195+102.611+47.8806+102.266+46.6196+101.545C44.8971+100.589+42.8583+96.94+40.5031+90.5634L10.0612+9.08502L0.464592+9.08502L0.464592+4.8694L36.6715+4.8694L36.6715+9.08502L23.8409+9.08502L52.8415+85.285L79.6276+9.08502L66.6915+9.08502L66.6915+4.8694L93.6182+4.8694L93.6182+9.08502L85.6035+9.08502L52.6306+102.537L50.7676+102.537Z" opacity="1" fill="#bbbbbb"/>
<path d="M132.954+97.861C134.571+98.0735+135.379+99.3488+135.379+101.722L98.5044+101.722L98.5044+97.6839C101.145+97.7763+103.787+97.5623+106.379+97.0462C109.683+95.948+111.335+92.9369+111.335+87.9773L111.335+37.1419L98.5044+37.1419L98.5044+33.1035L123.357+33.1035L123.357+97.6839L131.372+97.6839C131.904+97.6904+132.433+97.7497+132.954+97.861ZM124.482+13.2298C123.263+16.4884+120.094+18.5794+116.643+18.4019C115.444+18.3923+114.255+18.1766+113.128+17.7642C109.761+16.4795+107.622+13.1303+107.855+9.5101C107.862+8.22676+108.138+6.95937+108.663+5.79044C109.977+2.53254+113.194+0.470719+116.678+0.653761C117.889+0.685215+119.082+0.949756+120.193+1.43312C123.371+2.80744+125.362+6.03036+125.185+9.5101C125.218+10.7865+124.979+12.0552+124.482+13.2298Z" opacity="1" fill="#bbbbbb"/>
<path d="M150.6+49.0803C156.248+37.2718+166.231+31.3676+180.55+31.3676C186.109+31.3192+191.601+32.5936+196.579+35.0873C203.61+38.6298+207.125+43.1524+207.125+48.6552C207.116+49.3632+207.009+50.0666+206.809+50.7453C206.058+53.9174+202.951+55.9217+199.778+55.2797C198.552+55.1936+197.356+54.8561+196.263+54.2878C194.541+53.225+193.38+50.5327+192.748+46.2462C192.396+44.4041+192.15+43.058+191.939+42.2078C190.744+37.6733+187.299+35.4061+181.394+35.4061C177.767+35.3643+174.204+36.3725+171.129+38.311C163.747+43.0343+160.056+52.4811+160.056+66.6513C159.875+73.8381+161.534+80.9507+164.872+87.3042C168.085+94.3085+175.037+98.7995+182.694+98.8175C183.552+98.8112+184.409+98.752+185.26+98.6404C193.928+98.0728+201.516+92.572+204.805+84.4703L208.953+85.9227C208.15+87.8602+207.136+89.7018+205.93+91.4136C200.057+99.3757+190.585+103.802+180.761+103.175C173.65+103.276+166.675+101.201+160.759+97.2234C151.245+90.776+146.487+81.034+146.487+67.9975C146.427+61.46+147.833+54.9933+150.6+49.0803Z" opacity="1" fill="#bbbbbb"/>
<path d="M213.066+33.1034L224.279+33.1034L224.279+17.7642L236.301+14.2217L236.301+32.9617L261.154+32.9617L261.154+37.0002L236.301+37.0002L236.301+86.0643C236.301+94.1413+239.36+98.2861+245.125+98.4986C250.257+97.7665+254.159+92.9251+256.83+83.9742L261.154+84.789L261.154+85.1079C258.693+97.247+252.554+103.328+242.734+103.352C231.169+102.927+225.158+95.9834+224.279+82.5218L224.279+37.1419L213.066+37.1419L213.066+33.1034Z" opacity="1" fill="#bbbbbb"/>
<path d="M322.846+37.1419C332.759+43.6838+337.728+53.7446+337.751+67.3244C338.039+76.5834+334.692+85.5833+328.436+92.3701C321.922+99.5771+312.62+103.573+302.95+103.317C295.862+103.379+288.927+101.239+283.089+97.188C273.27+90.4099+268.36+80.2428+268.36+66.6867C268.101+57.5537+271.51+48.7017+277.816+42.1369C284.483+35.1022+293.793+31.2409+303.442+31.5093C310.318+31.434+317.064+33.3923+322.846+37.1419ZM283.089+79.9358C285.866+92.8306+292.651+99.3135+303.442+99.3135C305.45+99.3111+307.448+99.037+309.383+98.4987C319.179+95.3813+324.088+84.7537+324.112+66.6159C324.139+63.7503+323.975+60.8862+323.62+58.0429C321.722+42.9989+314.832+35.4651+302.95+35.4415C300.443+35.4304+297.954+35.8744+295.603+36.7523C286.487+40.4129+281.941+50.58+281.964+67.2535C281.929+71.5077+282.306+75.7552+283.089+79.9358Z" opacity="1" fill="#bbbbbb"/>
<path d="M386.578+97.861C388.195+98.0735+389.003+99.3488+389.003+101.722L349.281+101.722L349.281+97.6839C351.919+97.7926+354.559+97.5182+357.12+96.8691C359.897+95.9126+361.303+92.9369+361.303+87.9773L361.303+37.1419L349.281+37.1419L349.281+33.1035L372.517+33.1035L373.149+49.0803C374.507+45.8763+376.398+42.9292+378.739+40.3657C382.996+35.234+389.257+32.2215+395.893+32.1115C396.922+32.1147+397.948+32.2336+398.951+32.4658C403.373+32.9322+406.626+36.8544+406.298+41.3221C406.296+41.9844+406.189+42.6421+405.982+43.2705C405.435+46.1643+402.814+48.1794+399.9+47.9467C399.243+47.9416+398.591+47.8341+397.967+47.6279C396.491+47.2028+394.874+45.4669+393.186+42.4558C391.499+39.4446+390.023+38.4173+388.195+38.4173C385.901+38.9323+383.832+40.1738+382.289+41.9598C376.17+48.2248+372.911+56.7709+373.29+65.5531L373.29+97.6839L384.855+97.6839C385.435+97.6661+386.014+97.7257+386.578+97.861Z" opacity="1" fill="#bbbbbb"/>
<path d="M446.337+97.861C447.918+98.0735+448.727+99.3488+448.727+101.722L411.922+101.722L411.922+97.6839C414.551+97.7767+417.182+97.5627+419.761+97.0462C423.101+95.948+424.753+92.9369+424.753+87.9773L424.753+37.1419L411.922+37.1419L411.922+33.1035L436.74+33.1035L436.74+97.6839L444.755+97.6839C445.286+97.6926+445.816+97.7519+446.337+97.861ZM437.83+13.2298C436.611+16.4884+433.442+18.5794+429.991+18.4019C428.791+18.3965+427.602+18.1808+426.475+17.7642C423.087+16.5012+420.928+13.1425+421.167+9.5101C421.175+8.22676+421.45+6.95937+421.976+5.79044C423.306+2.54684+426.512+0.492255+429.991+0.65376C431.259+0.670477+432.513+0.935155+433.682+1.43312C436.838+2.8267+438.811+6.04166+438.638+9.5101C438.649+10.7917+438.386+12.0606+437.865+13.2298L437.83+13.2298Z" opacity="1" fill="#bbbbbb"/>
<path d="M503.072+88.7921C502.031+91.1983+500.566+93.3946+498.749+95.2749C493.577+100.589+486.448+103.502+479.063+103.317C475.93+103.343+472.824+102.741+469.924+101.545C463.033+98.9804+458.65+92.1383+459.167+84.7536C459.163+82.5081+459.495+80.2749+460.151+78.1291C463.76+67.5959+478.126+62.3294+503.248+62.3294L503.248+52.1623C502.944+41.7236+497.764+36.1736+487.711+35.5123C484.094+35.2211+480.563+36.7289+478.255+39.5508C477.043+41.8234+476.02+44.1932+475.197+46.6359C474.037+49.7533+472.209+51.3121+469.748+51.3121C469.216+51.3056+468.686+51.2463+468.166+51.1349C466.779+51.0018+465.504+50.3099+464.631+49.216C463.757+48.1222+463.359+46.7191+463.526+45.3252C463.583+43.3415+464.246+41.4239+465.424+39.8342C469.502+34.237+477.482+31.4384+489.468+31.4384L492.351+31.4384C507.607+32.3359+515.247+40.4601+515.27+55.8111L515.27+89.8903C515.27+95.275+516.712+98.0736+519.594+98.2861C523.109+98.2861+525.078+94.2122+525.851+86.3478L529.999+86.3478C530.047+86.949+530.047+87.5532+529.999+88.1545C529.132+98.1444+524.586+103.139+516.36+103.139C508.732+103.21+504.373+98.3923+503.072+88.7921ZM491.542+95.2749C497.752+92.282+502.121+86.4241+503.248+79.5815L503.248+66.6867C496.862+66.6154+490.483+67.1491+484.196+68.2808C475.97+70.2174+471.857+74.7991+471.857+82.0259C471.836+83.7024+471.989+85.3765+472.314+87.0208C473.099+92.9954+478.372+97.3155+484.336+96.8691C486.821+96.8398+489.274+96.2973+491.542+95.2749Z" opacity="1" fill="#bbbbbb"/>
<path d="M568.456+101.722L568.456+97.5067L581.286+97.5067L581.286+8.94328L568.456+8.94328L568.456+4.72766L642.276+4.72766L643.084+33.8119L639.885+33.8119L637.635+26.1954C637.635+25.7703+637.354+25.239+637.143+24.6013C633.839+14.1626+628.343+8.94328+620.657+8.94328L595.031+8.94328L595.031+49.2928L628.039+49.2928L628.039+53.9689L595.031+53.9689L595.031+97.4004L614.259+97.4004L614.259+101.616L568.456+101.722Z" opacity="1" fill="#bbbbbb"/>
<path d="M694.231+88.7921C693.189+91.1983+691.725+93.3946+689.907+95.2749C684.717+100.584+677.58+103.494+670.186+103.317C667.065+103.342+663.97+102.74+661.082+101.545C654.191+98.9804+649.808+92.1383+650.325+84.7536C650.31+82.5099+650.63+80.2767+651.275+78.1291C654.79+67.5014+669.272+62.3293+694.406+62.3293L694.406+52.1623C694.055+41.7118+688.887+36.15+678.834+35.5123C675.227+35.2207+671.707+36.7297+669.413+39.5508C668.17+41.8077+667.145+44.1804+666.355+46.6359C665.195+49.7533+663.367+51.312+660.906+51.312C660.363+51.3056+659.821+51.2463+659.289+51.1349C657.902+51.0018+656.627+50.3099+655.754+49.216C654.88+48.1222+654.482+46.7191+654.649+45.3252C654.704+43.3354+655.381+41.4139+656.583+39.8342C660.613+34.237+668.628+31.4384+680.627+31.4384L683.509+31.4384C698.765+32.3359+706.393+40.4601+706.393+55.8111L706.393+89.8903C706.534+95.2749+707.975+98.0735+710.717+98.2861C714.232+98.2861+716.236+94.2122+716.974+86.3477L721.157+86.3477C721.146+86.9537+721.087+87.5578+720.982+88.1544C720.138+98.1444+715.603+103.139+707.378+103.139C699.89+103.21+695.496+98.3923+694.231+88.7921ZM682.701+95.2749C688.89+92.2583+693.251+86.412+694.406+79.5815L694.406+66.6867C688.008+66.6178+681.618+67.1515+675.319+68.2808C667.093+70.2174+662.98+74.7991+662.98+82.0259C662.969+83.7037+663.134+85.3779+663.472+87.0208C664.224+93.0142+669.519+97.3523+675.494+96.8691C677.979+96.8398+680.432+96.2973+682.701+95.2749Z" opacity="1" fill="#bbbbbb"/>
<path d="M764.254+97.861C765.836+98.0735+766.644+99.3488+766.644+101.722L727.063+101.722L727.063+97.6839C729.713+97.794+732.365+97.5196+734.937+96.8691C737.714+95.9126+739.085+92.9369+739.085+87.9773L739.085+37.1419L727.063+37.1419L727.063+33.1035L750.299+33.1035L750.966+49.0803C752.324+45.8763+754.215+42.9292+756.556+40.3657C760.81+35.2302+767.073+32.2168+773.71+32.1115C774.728+32.1129+775.742+32.2317+776.733+32.4658C781.159+32.9321+784.423+36.8481+784.115+41.3221C784.113+41.9844+784.006+42.6421+783.799+43.2705C783.252+46.1643+780.631+48.1794+777.717+47.9467C777.06+47.9477+776.407+47.84+775.784+47.6279C774.308+47.2028+772.691+45.4669+770.968+42.4558C769.246+39.4446+767.804+38.4173+766.012+38.4173C763.704+38.9206+761.62+40.1634+760.071+41.9598C753.961+48.2284+750.714+56.7754+751.107+65.5531L751.107+97.6839L762.707+97.6839C763.228+97.6816+763.747+97.7411+764.254+97.861Z" opacity="1" fill="#bbbbbb"/>
<path d="M824.189+97.861C825.771+98.0735+826.579+99.3488+826.579+101.722L789.74+101.722L789.74+97.6839C792.368+97.7748+794.998+97.5609+797.578+97.0462C800.883+95.948+802.535+92.9369+802.535+87.9773L802.535+37.1419L789.74+37.1419L789.74+33.1035L814.557+33.1035L814.557+97.6839L822.466+97.6839C823.045+97.6854+823.622+97.7447+824.189+97.861ZM815.682+13.2298C814.463+16.4884+811.294+18.5794+807.843+18.4019C806.644+18.3923+805.455+18.1766+804.328+17.7642C800.961+16.4795+798.822+13.1303+799.055+9.5101C799.062+8.22676+799.338+6.95937+799.863+5.79044C801.176+2.53254+804.394+0.470719+807.878+0.653761C809.088+0.685215+810.282+0.949756+811.393+1.43312C814.57+2.80744+816.562+6.03036+816.385+9.5101C816.418+10.7865+816.179+12.0552+815.682+13.2298Z" opacity="1" fill="#bbbbbb"/>
<path d="M869.043+97.861C870.625+98.0735+871.433+99.3488+871.433+101.722L836.281+101.722L836.281+97.6839C838.931+97.794+841.583+97.5196+844.155+96.8691C846.932+95.9126+848.303+92.9369+848.303+87.9773L848.303+37.1419L836.176+37.1419L836.176+33.1035L859.411+33.1035L860.079+49.2574C861.212+46.2896+862.776+43.5079+864.719+41.0033C869.37+34.8881+876.62+31.3535+884.264+31.4739C888.155+31.4555+891.975+32.5222+895.302+34.5559C902.684+39.1612+906.375+46.8839+906.375+57.6532L906.375+97.6839L914.39+97.6839C914.922+97.6782+915.453+97.7377+915.971+97.861C917.588+98.0736+918.397+99.3489+918.397+101.722L882.225+101.722L882.225+97.6839C884.864+97.7971+887.504+97.5227+890.064+96.8691C892.841+95.9126+894.247+92.9369+894.247+87.9774L894.247+56.0945C894.286+53.2302+893.797+50.3835+892.806+47.6987C890.985+41.9298+885.516+38.1385+879.519+38.4881C876.374+38.5289+873.309+39.4888+870.695+41.2513C863.946+45.644+860.431+52.8708+860.15+62.8608L860.15+97.7548L867.356+97.7548C867.92+97.7216+868.487+97.7573+869.043+97.861Z" opacity="1" fill="#bbbbbb"/>
<path d="M971.899+88.7921C970.858+91.1983+969.393+93.3946+967.575+95.2749C962.385+100.584+955.248+103.494+947.855+103.317C944.722+103.339+941.616+102.737+938.715+101.545C931.846+98.9585+927.483+92.126+927.994+84.7536C927.978+82.5099+928.298+80.2767+928.943+78.1291C932.458+67.5014+946.941+62.3293+972.075+62.3293L972.075+52.1623C971.723+41.7118+966.556+36.15+956.502+35.5123C952.895+35.2207+949.375+36.7297+947.081+39.5508C945.838+41.8077+944.814+44.1804+944.023+46.6359C942.863+49.7533+941.035+51.312+938.574+51.312C938.031+51.3056+937.49+51.2463+936.957+51.1349C935.57+51.0018+934.295+50.3099+933.422+49.216C932.548+48.1222+932.15+46.7191+932.317+45.3252C932.372+43.3354+933.049+41.4139+934.251+39.8342C938.282+34.237+946.296+31.4384+958.295+31.4384L961.177+31.4384C976.434+32.3359+984.062+40.4601+984.062+55.8111L984.062+89.8903C984.202+95.2749+985.643+98.0735+988.385+98.2861C991.901+98.2861+993.904+94.2122+994.642+86.3477L998.826+86.3477C998.814+86.9537+998.755+87.5578+998.65+88.1544C997.806+98.1444+993.271+103.139+985.046+103.139C977.558+103.21+973.164+98.3923+971.899+88.7921ZM960.369+95.2749C966.559+92.2583+970.919+86.412+972.075+79.5815L972.075+66.6867C965.677+66.6178+959.286+67.1515+952.987+68.2808C944.761+70.2174+940.648+74.7991+940.648+82.0259C940.638+83.7037+940.803+85.3779+941.141+87.0208C941.892+93.0142+947.187+97.3523+953.163+96.8691C955.648+96.8398+958.1+96.2973+960.369+95.2749Z" opacity="1" fill="#bbbbbb"/>
<path d="M15.4043+234.001L11.8891+234.001L36.4957+176.753L39.7649+176.753L64.1606+234.001L60.6454+234.001L37.1285+178.773L39.2025+178.773L15.4043+234.001ZM21.8021+218.166L22.6809+214.942L53.3337+214.942L54.3531+218.166L21.8021+218.166Z" opacity="1" fill="#ffffff"/>
<path d="M77.5536+234.001L77.5536+176.753L80.7525+176.753L80.7525+230.954L110.983+230.954L110.983+234.001L77.5536+234.001Z" opacity="1" fill="#ffffff"/>
<path d="M142.902+234.497C138.25+234.622+133.66+233.392+129.684+230.954C125.907+228.516+122.934+225.002+121.142+220.858C118.99+215.942+117.945+210.607+118.084+205.235C117.963+199.861+118.982+194.523+121.072+189.577C122.875+185.45+125.847+181.95+129.614+179.517C137.865+174.791+147.974+174.791+156.224+179.517C160.011+181.922+162.998+185.413+164.802+189.542C168.808+199.578+168.808+210.786+164.802+220.822C162.984+224.981+159.988+228.506+156.189+230.954C152.191+233.4+147.577+234.63+142.902+234.497ZM142.902+231.202C148.892+231.527+154.686+228.995+158.545+224.365C166.011+212.683+166.011+197.681+158.545+185.999C154.453+181.686+148.788+179.245+142.867+179.245C136.945+179.245+131.281+181.686+127.189+185.999C123.199+191.522+121.247+198.275+121.67+205.094C121.254+211.944+123.204+218.728+127.189+224.294C131.019+229.024+136.851+231.64+142.902+231.344L142.902+231.202ZM158.228+249.198C155.875+247.266+153.762+245.053+151.936+242.609C149.829+239.932+147.903+237.115+146.171+234.178L150.003+233.292C151.396+235.81+153.033+238.183+154.889+240.377C156.622+242.449+158.514+244.379+160.548+246.152L158.228+249.198Z" opacity="1" fill="#ffffff"/>
<path d="M205.297+234.497C199.394+234.93+193.578+232.878+189.232+228.829C185.287+224.216+183.316+218.217+183.749+212.143L183.749+176.718L187.018+176.718L187.018+212.816C186.31+217.893+188.005+223.011+191.595+226.643C195.185+230.275+200.257+232.002+205.297+231.308C210.245+231.665+215.125+229.991+218.831+226.668C222.145+222.861+223.793+217.866+223.401+212.816L223.401+176.753L226.916+176.753L226.916+212.179C227.349+218.252+225.377+224.252+221.432+228.864C217.082+232.95+211.223+234.995+205.297+234.497Z" opacity="1" fill="#ffffff"/>
<path d="M244.949+234.001L244.949+176.753L248.218+176.753L248.218+234.001L244.949+234.001Z" opacity="1" fill="#ffffff"/>
<path d="M267.06+234.001L267.06+176.753L269.942+176.753L294.549+232.69L292.264+232.69L316.273+176.753L319.191+176.753L319.191+234.001L315.886+234.001L315.886+179.871L318.066+180.048L294.443+234.001L291.666+234.001L267.657+179.977L270.048+179.977L270.048+234.107L267.06+234.001Z" opacity="1" fill="#ffffff"/>
<path d="M337.751+234.001L337.751+176.753L340.88+176.753L340.88+234.001L337.751+234.001Z" opacity="1" fill="#ffffff"/>
<path d="M376.735+234.497C374.007+234.514+371.285+234.241+368.615+233.682C366.257+233.192+363.983+232.357+361.866+231.202C359.734+230.01+357.781+228.519+356.065+226.774L357.753+223.975C360.218+226.367+363.118+228.255+366.295+229.537C369.681+230.732+373.254+231.297+376.84+231.202C381.015+231.458+385.157+230.312+388.616+227.943C391.41+225.769+392.972+222.356+392.8+218.803C392.919+216.658+392.111+214.565+390.585+213.064C388.912+211.59+386.947+210.491+384.82+209.841C382.465+209.061+380.004+208.388+377.403+207.786C374.802+207.184+372.868+206.652+370.372+205.979C368.089+205.347+365.883+204.456+363.799+203.322C361.841+202.281+360.155+200.788+358.878+198.965C357.57+196.843+356.922+194.376+357.015+191.88C356.929+188.921+357.765+186.01+359.405+183.555C361.09+181.098+363.43+179.17+366.154+177.993C369.495+176.607+373.088+175.943+376.7+176.045C379.148+176.039+381.589+176.313+383.976+176.86C386.214+177.431+388.365+178.301+390.374+179.446C392.38+180.61+394.204+182.066+395.788+183.768L394.1+186.566C391.738+184.248+388.974+182.387+385.945+181.075C383.01+179.876+379.866+179.286+376.7+179.339C372.464+179.071+368.264+180.258+364.783+182.705C361.941+184.927+360.343+188.399+360.495+192.022C360.382+194.24+361.111+196.418+362.533+198.115C364.001+199.685+365.804+200.896+367.806+201.657C370.031+202.525+372.309+203.247+374.626+203.818C376.946+204.421+379.407+204.987+381.938+205.59C384.348+206.163+386.701+206.958+388.968+207.963C391.032+208.862+392.835+210.276+394.206+212.072C395.65+214.137+396.357+216.635+396.209+219.157C396.26+222.023+395.424+224.833+393.819+227.199C392.099+229.604+389.75+231.48+387.035+232.619C383.77+233.965+380.261+234.605+376.735+234.497Z" opacity="1" fill="#ffffff"/>
<path d="M423.98+234.001L423.98+179.8L403.064+179.8L403.064+176.753L448.235+176.753L448.235+179.8L427.143+179.8L427.143+234.001L423.98+234.001Z" opacity="1" fill="#ffffff"/>
<path d="M452.312+234.001L448.797+234.001L473.193+176.753L476.462+176.753L500.893+234.001L497.378+234.001L473.826+178.773L475.9+178.773L452.312+234.001ZM458.71+218.166L459.589+214.942L490.207+214.942L491.261+218.166L458.71+218.166Z" opacity="1" fill="#ffffff"/>
<path d="M537.733+234.001L537.733+176.753L571.865+176.753L571.865+179.871L541.072+179.871L541.072+203.358L570.284+203.358L570.284+206.582L541.072+206.582L541.072+230.954L571.865+230.954L571.865+234.107L537.733+234.001Z" opacity="1" fill="#ffffff"/>
<path d="M603.503+234.497C600.763+234.516+598.03+234.243+595.347+233.682C592.992+233.182+590.719+232.347+588.598+231.202C586.472+230.018+584.53+228.526+582.833+226.774L584.52+223.975C586.973+226.366+589.862+228.255+593.027+229.537C596.413+230.731+599.987+231.295+603.573+231.202C607.736+231.453+611.865+230.307+615.314+227.943C618.125+225.781+619.702+222.363+619.532+218.803C619.637+216.653+618.817+214.562+617.282+213.064C615.622+211.591+613.668+210.492+611.552+209.841C609.197+209.061+606.737+208.388+604.1+207.786C601.464+207.184+599.565+206.652+597.07+205.979C594.788+205.341+592.583+204.45+590.496+203.322C588.546+202.283+586.871+200.789+585.61+198.965C584.276+196.853+583.614+194.381+583.712+191.88C583.652+188.925+584.485+186.021+586.102+183.555C587.801+181.097+590.152+179.169+592.887+177.993C596.226+176.6+599.82+175.936+603.432+176.045C605.869+176.039+608.298+176.313+610.674+176.86C612.924+177.424+615.088+178.294+617.106+179.446C619.096+180.619+620.907+182.075+622.485+183.768L620.797+186.566C618.442+184.257+615.691+182.396+612.677+181.075C609.741+179.883+606.598+179.293+603.432+179.339C599.185+179.066+594.972+180.253+591.48+182.705C588.651+184.935+587.067+188.406+587.227+192.022C587.115+194.24+587.843+196.418+589.266+198.115C590.717+199.687+592.51+200.899+594.504+201.657C596.73+202.52+599.007+203.242+601.323+203.818L608.635+205.59C611.048+206.152+613.403+206.947+615.665+207.963C617.74+208.86+619.554+210.275+620.938+212.072C622.368+214.145+623.073+216.637+622.942+219.158C622.996+222.029+622.147+224.844+620.516+227.199C618.804+229.612+616.453+231.49+613.732+232.619C610.49+233.961+607.005+234.6+603.503+234.497Z" opacity="1" fill="#ffffff"/>
<path d="M637.811+234.001L637.811+176.753L658.903+176.753C663.634+176.471+668.307+177.932+672.05+180.863C675.275+183.709+677.035+187.883+676.83+192.199C677.057+196.539+675.295+200.743+672.05+203.606C668.323+206.574+663.645+208.061+658.903+207.786L641.326+207.786L641.326+234.001L637.811+234.001ZM641.08+204.491L658.657+204.491C662.524+204.78+666.362+203.633+669.448+201.268C674.274+196.186+674.274+188.176+669.448+183.094C666.355+180.743+662.522+179.599+658.657+179.871L641.08+179.871L641.08+204.491Z" opacity="1" fill="#ffffff"/>
<path d="M691.911+234.001L691.911+176.753L695.18+176.753L695.18+234.001L691.911+234.001Z" opacity="1" fill="#ffffff"/>
<path d="M713.846+234.001L713.846+176.753L734.937+176.753C739.75+176.471+744.514+177.859+748.436+180.686C751.751+183.545+753.535+187.811+753.251+192.199C753.481+196.503+751.684+200.665+748.4+203.429C744.487+206.336+739.684+207.765+734.832+207.467L740.245+206.404C742.178+206.336+744.076+206.936+745.623+208.105C747.309+209.602+748.529+211.558+749.139+213.737L756.45+234.001L752.935+234.001L745.905+214.942C745.263+212.562+743.741+210.521+741.651+209.238C739.361+208.273+736.89+207.826+734.41+207.928L716.834+207.928L716.834+234.001L713.846+234.001ZM717.185+204.739L735.078+204.739C739.01+205.025+742.913+203.881+746.08+201.516C748.577+199.053+749.864+195.603+749.596+192.092C749.864+188.676+748.569+185.323+746.08+182.988C742.883+180.666+738.972+179.562+735.043+179.871L717.15+179.871L717.185+204.739Z" opacity="1" fill="#ffffff"/>
<path d="M771.601+234.001L771.601+176.753L774.87+176.753L774.87+234.001L771.601+234.001Z" opacity="1" fill="#ffffff"/>
<path d="M807.667+234.001L807.667+179.8L786.576+179.8L786.576+176.753L831.747+176.753L831.747+179.8L810.655+179.8L810.655+234.001L807.667+234.001Z" opacity="1" fill="#ffffff"/>
<path d="M864.965+234.497C859.052+234.936+853.222+232.884+848.866+228.829C844.92+224.216+842.949+218.217+843.382+212.143L843.382+176.718L846.651+176.718L846.651+212.816C845.941+217.9+847.639+223.025+851.238+226.659C854.837+230.293+859.919+232.014+864.965+231.308C869.902+231.663+874.772+229.989+878.464+226.668C881.788+222.864+883.448+217.87+883.069+212.816L883.069+176.753L886.408+176.753L886.408+212.179C886.842+218.252+884.87+224.252+880.925+228.864C876.617+232.903+870.832+234.944+864.965+234.497Z" opacity="1" fill="#ffffff"/>
<path d="M902.754+234.001L899.239+234.001L923.635+176.753L926.904+176.753L951.335+234.001L947.819+234.001L924.267+178.773L926.341+178.773L902.754+234.001ZM909.152+218.166L910.031+214.942L940.648+214.942L941.668+218.166L909.152+218.166Z" opacity="1" fill="#ffffff"/>
<path d="M964.903+234.001L964.903+176.753L968.173+176.753L968.173+230.954L998.404+230.954L998.404+234.001L964.903+234.001Z" opacity="1" fill="#ffffff"/>
</g>
</svg>
